<svg width="14" height="14" viewBox="0 0 14 14" fill="black" xmlns="http://www.w3.org/2000/svg">
<g id="Frame" clip-path="url(#clip0_30_351)">
<path id="Vector" d="M4.15625 0C4.3303 0 4.49722 0.0691404 4.62029 0.192211C4.74336 0.315282 4.8125 0.482202 4.8125 0.65625V1.75H9.1875V0.65625C9.1875 0.482202 9.25664 0.315282 9.37971 0.192211C9.50278 0.0691404 9.6697 0 9.84375 0C10.0178 0 10.1847 0.0691404 10.3078 0.192211C10.4309 0.315282 10.5 0.482202 10.5 0.65625V1.75H11.5938C12.439 1.75 13.125 2.436 13.125 3.28125V12.4688C13.125 12.8749 12.9637 13.2643 12.6765 13.5515C12.3893 13.8387 11.9999 14 11.5938 14H2.40625C2.00014 14 1.61066 13.8387 1.32349 13.5515C1.03633 13.2643 0.875 12.8749 0.875 12.4688V3.28125C0.875 2.436 1.561 1.75 2.40625 1.75H3.5V0.65625C3.5 0.482202 3.56914 0.315282 3.69221 0.192211C3.81528 0.0691404 3.9822 0 4.15625 0ZM2.1875 6.5625V12.4688C2.1875 12.5895 2.2855 12.6875 2.40625 12.6875H11.5938C11.6518 12.6875 11.7074 12.6645 11.7484 12.6234C11.7895 12.5824 11.8125 12.5268 11.8125 12.4688V6.5625H2.1875ZM11.5938 3.0625H2.40625C2.34823 3.0625 2.29259 3.08555 2.25157 3.12657C2.21055 3.16759 2.1875 3.22323 2.1875 3.28125V5.25H11.8125V3.28125C11.8125 3.22323 11.7895 3.16759 11.7484 3.12657C11.7074 3.08555 11.6518 3.0625 11.5938 3.0625Z" fill="#FFFCFC"/>
</g>
<defs>
<clipPath id="clip0_30_351">
<rect width="14" height="14" fill="white"/>
</clipPath>
</defs>
</svg>
