<svg width="22" height="22" viewBox="0 0 22 22" fill="none" xmlns="http://www.w3.org/2000/svg">
<g id="star-fill 6">
<path id="Vector" d="M11 0.34375C11.1925 0.343626 11.3812 0.397394 11.5448 0.49897C11.7083 0.600545 11.8402 0.745871 11.9254 0.9185L14.5131 6.16412L20.3019 7.00562C20.4923 7.03328 20.6711 7.11363 20.8182 7.23761C20.9654 7.36159 21.0748 7.52425 21.1344 7.7072C21.1939 7.89015 21.201 8.0861 21.155 8.27289C21.1089 8.45969 21.0116 8.62989 20.8739 8.76425L16.6856 12.848L17.6743 18.612C17.7063 18.8015 17.6848 18.9962 17.6122 19.1742C17.5396 19.3522 17.4188 19.5064 17.2633 19.6194C17.1078 19.7325 16.9239 19.7999 16.7322 19.814C16.5405 19.8282 16.3487 19.7886 16.1783 19.6996L11 16.9771L5.82176 19.6996C5.65152 19.789 5.45968 19.829 5.2679 19.8151C5.07612 19.8013 4.89204 19.734 4.73645 19.6211C4.58086 19.5081 4.45995 19.3539 4.38738 19.1758C4.31481 18.9977 4.29347 18.8029 4.32576 18.6134L5.31576 12.8466L1.12476 8.76425C0.986666 8.62994 0.888949 8.45964 0.842684 8.27265C0.796418 8.08565 0.803455 7.88943 0.862996 7.70623C0.922537 7.52302 1.0322 7.36016 1.17956 7.23609C1.32693 7.11202 1.50609 7.03171 1.69676 7.00425L7.48551 6.16412L10.0746 0.9185C10.1599 0.745871 10.2917 0.600545 10.4552 0.49897C10.6188 0.397394 10.8075 0.343626 11 0.34375Z" fill="#D1D1D1"/>
</g>
</svg>
